<svg width="15" height="16" viewBox="0 0 15 16" fill="none" xmlns="http://www.w3.org/2000/svg">
<path d="M13.4642 13.3635V3.58239H14.8931V2.37484H11.1094V1.81132C11.1094 0.805031 10.3044 0 9.29811 0H5.59497C4.58868 0 3.78365 0.805031 3.78365 1.81132V2.37484H0V3.58239H1.42893V13.3836C1.42893 14.8327 2.59623 16 4.04528 16H10.8478C12.2767 15.9799 13.4642 14.8126 13.4642 13.3635ZM4.99119 1.81132C4.99119 1.46918 5.25283 1.20755 5.59497 1.20755H9.27799C9.62013 1.20755 9.88176 1.46918 9.88176 1.81132V2.37484H4.99119V1.81132ZM2.63648 13.3635V3.58239H12.2566V13.3836C12.2566 14.1686 11.6327 14.7925 10.8478 14.7925H4.04528C3.2805 14.7723 2.63648 14.1484 2.63648 13.3635Z" fill="black"/>
<path d="M8.05032 5.49432H6.84277V12.7195H8.05032V5.49432Z" fill="black"/>
<path d="M10.2641 5.49432H9.05658V12.7195H10.2641V5.49432Z" fill="black"/>
<path d="M5.83645 5.49432H4.62891V12.7195H5.83645V5.49432Z" fill="black"/>
</svg>
