<svg width="8" height="16" viewBox="0 0 8 16" fill="none" xmlns="http://www.w3.org/2000/svg">
<path d="M7.77899 3.89661C7.77667 4.82125 7.44502 5.71482 6.84352 6.41707C6.24202 7.11932 5.41001 7.58432 4.49671 7.72867L4.49671 15.3846C4.49671 15.5478 4.43187 15.7043 4.31646 15.8197C4.20104 15.9352 4.04451 16 3.88128 16C3.71806 16 3.56153 15.9352 3.44611 15.8197C3.3307 15.7043 3.26586 15.5478 3.26586 15.3846L3.26586 15.1794L1.41958 15.1794C1.25636 15.1794 1.09982 15.1146 0.984408 14.9992C0.868993 14.8838 0.804153 14.7272 0.804153 14.564C0.804153 14.4008 0.868993 14.2442 0.984408 14.1288C1.09982 14.0134 1.25636 13.9486 1.41958 13.9486L3.26586 13.9486L3.26586 12.7177L2.24015 12.7177C2.07693 12.7177 1.92039 12.6529 1.80498 12.5375C1.68956 12.4221 1.62472 12.2655 1.62472 12.1023C1.62472 11.9391 1.68956 11.7825 1.80498 11.6671C1.92039 11.5517 2.07693 11.4869 2.24015 11.4869L3.26586 11.4869L3.26586 7.72867C2.53255 7.60955 1.8487 7.28291 1.29518 6.78738C0.741669 6.29184 0.34165 5.64815 0.142441 4.93244C-0.0567687 4.21673 -0.046834 3.45893 0.171068 2.74869C0.38897 2.03844 0.805723 1.40546 1.37204 0.924608C1.93835 0.443756 2.63053 0.135152 3.36671 0.0352966C4.10289 -0.0645592 4.85227 0.0485111 5.52621 0.361134C6.20015 0.673757 6.77046 1.17285 7.16968 1.79939C7.56891 2.42593 7.78035 3.1537 7.77899 3.89661ZM1.21444 3.89661C1.21444 4.42407 1.37085 4.93967 1.66388 5.37824C1.95692 5.8168 2.37342 6.15861 2.86073 6.36046C3.34803 6.56231 3.88424 6.61512 4.40156 6.51222C4.91888 6.40932 5.39407 6.15533 5.76703 5.78236C6.14 5.40939 6.39399 4.93421 6.49689 4.41689C6.59979 3.89957 6.54698 3.36336 6.34513 2.87606C6.14328 2.38875 5.80147 1.97225 5.36291 1.67921C4.92435 1.38617 4.40874 1.22977 3.88129 1.22977C3.17466 1.23193 2.49759 1.5136 1.99793 2.01326C1.49827 2.51292 1.2166 3.18999 1.21444 3.89661Z" fill="black"/>
</svg>
